<svg width="56" height="56" viewBox="0 0 56 56" fill="none" xmlns="http://www.w3.org/2000/svg">
<g clip-path="url(#clip0_29_553)">
<path d="M28 56C43.464 56 56 43.464 56 28C56 12.536 43.464 0 28 0C12.536 0 0 12.536 0 28C0 43.464 12.536 56 28 56Z" fill="#4CC764"/>
<path d="M46.6724 26.3689C46.6724 18.004 38.2864 11.2 27.9807 11.2C17.6749 11.2 9.28894 18.0057 9.28894 26.3689C9.28894 33.8677 15.9389 40.1467 24.9217 41.3349C25.5307 41.4662 26.3584 41.7357 26.5684 42.2572C26.7574 42.7297 26.6909 43.47 26.6297 43.9477C26.6297 43.9477 26.4109 45.2672 26.3637 45.5472C26.2814 46.0197 25.9874 47.3952 27.9824 46.5552C29.9774 45.7152 38.7467 40.2167 42.6684 35.7035C45.3774 32.732 46.6759 29.7185 46.6759 26.3707L46.6724 26.3689Z" fill="white"/>
<path d="M40.4547 31.199C40.6524 31.199 40.8117 31.0398 40.8117 30.842V29.5155C40.8117 29.3195 40.6507 29.1585 40.4547 29.1585H36.8864V27.7813H40.4547C40.6524 27.7813 40.8117 27.622 40.8117 27.4243V26.0995C40.8117 25.9035 40.6507 25.7425 40.4547 25.7425H36.8864V24.3653H40.4547C40.6524 24.3653 40.8117 24.206 40.8117 24.0083V22.6835C40.8117 22.4875 40.6507 22.3265 40.4547 22.3265H35.2029C35.0052 22.3265 34.8459 22.4858 34.8459 22.6835V22.6905V30.835V30.842C34.8459 31.0398 35.0052 31.199 35.2029 31.199H40.4547Z" fill="#4CC764"/>
<path d="M21.0298 31.199C21.2275 31.199 21.3868 31.0398 21.3868 30.842V29.5155C21.3868 29.3195 21.2258 29.1585 21.0298 29.1585H17.4615V22.6835C17.4615 22.4875 17.3005 22.3265 17.1045 22.3265H15.778C15.5803 22.3265 15.421 22.4858 15.421 22.6835V30.835V30.842C15.421 31.0398 15.5803 31.199 15.778 31.199H21.0298Z" fill="#4CC764"/>
<path d="M24.1903 22.3265H22.8655C22.6684 22.3265 22.5085 22.4864 22.5085 22.6835V30.8403C22.5085 31.0375 22.6684 31.1973 22.8655 31.1973H24.1903C24.3875 31.1973 24.5473 31.0375 24.5473 30.8403V22.6835C24.5473 22.4864 24.3875 22.3265 24.1903 22.3265Z" fill="#4CC764"/>
<path d="M33.215 22.3265H31.8885C31.6907 22.3265 31.5315 22.4858 31.5315 22.6835V27.5293L27.7987 22.4893C27.79 22.477 27.7795 22.4648 27.7707 22.4525C27.7707 22.4525 27.7707 22.4525 27.769 22.4508C27.762 22.4438 27.755 22.435 27.748 22.428C27.7462 22.4263 27.7427 22.4245 27.741 22.4228C27.734 22.4175 27.7287 22.4123 27.7217 22.407C27.7182 22.4053 27.7147 22.4018 27.7112 22.4C27.706 22.3948 27.699 22.3913 27.692 22.3878C27.6885 22.386 27.685 22.3825 27.6815 22.3808C27.6745 22.3773 27.6692 22.3738 27.6622 22.3703C27.6587 22.3685 27.6552 22.3668 27.6517 22.365C27.6447 22.3615 27.6377 22.358 27.6307 22.3563C27.6272 22.3563 27.6237 22.3528 27.6185 22.3528C27.6115 22.351 27.6045 22.3475 27.5975 22.3458C27.594 22.3458 27.5887 22.344 27.5852 22.3423C27.5782 22.3423 27.5712 22.3388 27.5642 22.337C27.559 22.337 27.5537 22.337 27.5485 22.3353C27.5415 22.3353 27.5362 22.3335 27.5292 22.3335C27.5222 22.3335 27.517 22.3335 27.51 22.3335C27.5065 22.3335 27.5012 22.3335 27.4977 22.3335H26.18C25.9822 22.3335 25.823 22.4928 25.823 22.6905V30.849C25.823 31.0468 25.9822 31.206 26.18 31.206H27.5065C27.7042 31.206 27.8635 31.0468 27.8635 30.849V26.005L31.5997 31.052C31.626 31.0888 31.6575 31.1185 31.6925 31.1413C31.6925 31.1413 31.696 31.143 31.696 31.1448C31.703 31.15 31.71 31.1535 31.7187 31.1588C31.7222 31.1605 31.7257 31.1623 31.7292 31.164C31.7345 31.1675 31.7415 31.1693 31.7467 31.1728C31.752 31.1763 31.759 31.178 31.7642 31.1798C31.7677 31.1798 31.7712 31.1833 31.7747 31.1833C31.7835 31.1868 31.7905 31.1885 31.7992 31.1903C31.7992 31.1903 31.8027 31.1903 31.8045 31.1903C31.8342 31.1973 31.8657 31.2025 31.8972 31.2025H33.215C33.4127 31.2025 33.572 31.0433 33.572 30.8455V22.687C33.572 22.4893 33.4127 22.33 33.215 22.33V22.3265Z" fill="#4CC764"/>
</g>
<defs>
<clipPath id="clip0_29_553">
<rect width="56" height="56" fill="white"/>
</clipPath>
</defs>
</svg>
