<svg width="111" height="17" viewBox="0 0 111 17" fill="none" xmlns="http://www.w3.org/2000/svg">
<path d="M2.34 16.756C2.142 16.756 2.016 16.63 2.052 16.414L2.682 13.57H0.918C0.702 13.57 0.576 13.444 0.63 13.228L1.134 10.942C1.17 10.762 1.278 10.654 1.458 10.654H3.312L3.87 8.134H2.124C1.89 8.134 1.782 8.008 1.836 7.792L2.322 5.506C2.358 5.344 2.484 5.218 2.646 5.218H4.5L5.112 2.428C5.148 2.266 5.274 2.158 5.472 2.158H7.866C8.082 2.158 8.208 2.284 8.136 2.5L7.542 5.218H9.936L10.566 2.428C10.602 2.266 10.728 2.158 10.908 2.158H13.32C13.536 2.158 13.662 2.284 13.59 2.5L12.996 5.218H14.76C14.976 5.218 15.084 5.344 15.03 5.56L14.544 7.846C14.508 8.008 14.4 8.134 14.22 8.134H12.348L11.79 10.654H13.554C13.77 10.654 13.896 10.78 13.86 11.014L13.356 13.282C13.32 13.462 13.194 13.57 13.014 13.57H11.16L10.512 16.468C10.476 16.648 10.368 16.756 10.188 16.756H7.794C7.56 16.756 7.452 16.63 7.506 16.414L8.118 13.57H5.724L5.094 16.468C5.058 16.648 4.932 16.756 4.752 16.756H2.34ZM6.372 10.654H8.766L9.324 8.134H6.912L6.372 10.654ZM29.1257 4.948C28.9277 5.038 28.7837 4.984 28.6577 4.804C28.2077 3.994 27.4337 2.986 26.8397 2.356C26.7677 2.284 26.7317 2.194 26.7317 2.122C26.7317 2.032 26.7857 1.942 26.9117 1.888L27.9197 1.366C27.9917 1.33 28.0637 1.312 28.1357 1.312C28.2257 1.312 28.2977 1.348 28.3877 1.42C29.0537 2.032 29.9357 3.13 30.4037 3.922C30.5117 4.12 30.4397 4.282 30.2417 4.39L29.1257 4.948ZM28.1897 12.112C26.2997 11.14 24.0857 10.348 21.9437 9.862V16.594C21.9437 16.828 21.8357 16.936 21.6017 16.936H18.7217C18.4877 16.936 18.3797 16.828 18.3797 16.594V1.996C18.3797 1.78 18.4877 1.654 18.7217 1.654H21.6017C21.8357 1.654 21.9437 1.78 21.9437 1.996V6.478C24.6617 6.982 27.6497 7.882 29.9177 8.89C30.0437 8.944 30.1157 9.034 30.1157 9.16C30.1157 9.214 30.0977 9.286 30.0617 9.358L28.6577 11.968C28.5497 12.166 28.3877 12.202 28.1897 12.112ZM26.6957 6.172C26.4977 6.262 26.3357 6.226 26.2277 6.028C25.7597 5.146 25.0757 4.192 24.4277 3.472C24.3557 3.382 24.3197 3.31 24.3197 3.238C24.3197 3.148 24.3737 3.076 24.4997 3.004L25.5257 2.482C25.5977 2.446 25.6697 2.428 25.7417 2.428C25.8317 2.428 25.9037 2.464 25.9937 2.536C26.6597 3.148 27.5057 4.264 28.0097 5.11C28.0457 5.182 28.0637 5.236 28.0637 5.308C28.0637 5.416 27.9917 5.506 27.8657 5.578L26.6957 6.172ZM45.3257 4.948C45.1277 5.038 44.9837 4.984 44.8577 4.804C44.4077 3.994 43.6337 2.986 43.0397 2.356C42.9677 2.284 42.9317 2.194 42.9317 2.122C42.9317 2.032 42.9857 1.942 43.1117 1.888L44.1197 1.366C44.1917 1.33 44.2637 1.312 44.3357 1.312C44.4257 1.312 44.4977 1.348 44.5877 1.42C45.2537 2.032 46.1357 3.13 46.6037 3.922C46.7117 4.12 46.6397 4.282 46.4417 4.39L45.3257 4.948ZM44.3897 12.112C42.4997 11.14 40.2857 10.348 38.1437 9.862V16.594C38.1437 16.828 38.0357 16.936 37.8017 16.936H34.9217C34.6877 16.936 34.5797 16.828 34.5797 16.594V1.996C34.5797 1.78 34.6877 1.654 34.9217 1.654H37.8017C38.0357 1.654 38.1437 1.78 38.1437 1.996V6.478C40.8617 6.982 43.8497 7.882 46.1177 8.89C46.2437 8.944 46.3157 9.034 46.3157 9.16C46.3157 9.214 46.2977 9.286 46.2617 9.358L44.8577 11.968C44.7497 12.166 44.5877 12.202 44.3897 12.112ZM42.8957 6.172C42.6977 6.262 42.5357 6.226 42.4277 6.028C41.9597 5.146 41.2757 4.192 40.6277 3.472C40.5557 3.382 40.5197 3.31 40.5197 3.238C40.5197 3.148 40.5737 3.076 40.6997 3.004L41.7257 2.482C41.7977 2.446 41.8697 2.428 41.9417 2.428C42.0317 2.428 42.1037 2.464 42.1937 2.536C42.8597 3.148 43.7057 4.264 44.2097 5.11C44.2457 5.182 44.2637 5.236 44.2637 5.308C44.2637 5.416 44.1917 5.506 44.0657 5.578L42.8957 6.172ZM61.5257 4.948C61.3277 5.038 61.1837 4.984 61.0577 4.804C60.6077 3.994 59.8337 2.986 59.2397 2.356C59.1677 2.284 59.1317 2.194 59.1317 2.122C59.1317 2.032 59.1857 1.942 59.3117 1.888L60.3197 1.366C60.3917 1.33 60.4637 1.312 60.5357 1.312C60.6257 1.312 60.6977 1.348 60.7877 1.42C61.4537 2.032 62.3357 3.13 62.8037 3.922C62.9117 4.12 62.8397 4.282 62.6417 4.39L61.5257 4.948ZM60.5897 12.112C58.6997 11.14 56.4857 10.348 54.3437 9.862V16.594C54.3437 16.828 54.2357 16.936 54.0017 16.936H51.1217C50.8877 16.936 50.7797 16.828 50.7797 16.594V1.996C50.7797 1.78 50.8877 1.654 51.1217 1.654H54.0017C54.2357 1.654 54.3437 1.78 54.3437 1.996V6.478C57.0617 6.982 60.0497 7.882 62.3177 8.89C62.4437 8.944 62.5157 9.034 62.5157 9.16C62.5157 9.214 62.4977 9.286 62.4617 9.358L61.0577 11.968C60.9497 12.166 60.7877 12.202 60.5897 12.112ZM59.0957 6.172C58.8977 6.262 58.7357 6.226 58.6277 6.028C58.1597 5.146 57.4757 4.192 56.8277 3.472C56.7557 3.382 56.7197 3.31 56.7197 3.238C56.7197 3.148 56.7737 3.076 56.8997 3.004L57.9257 2.482C57.9977 2.446 58.0697 2.428 58.1417 2.428C58.2317 2.428 58.3037 2.464 58.3937 2.536C59.0597 3.148 59.9057 4.264 60.4097 5.11C60.4457 5.182 60.4637 5.236 60.4637 5.308C60.4637 5.416 60.3917 5.506 60.2657 5.578L59.0957 6.172ZM78.2332 3.688C78.0352 3.76 77.8912 3.688 77.8012 3.472C77.5132 2.698 77.0632 1.834 76.5592 1.15C76.5052 1.06 76.4692 0.987999 76.4692 0.915999C76.4692 0.807999 76.5412 0.735999 76.6852 0.682L77.4952 0.411999C77.6932 0.339999 77.8372 0.375999 77.9632 0.52C78.5032 1.15 79.0432 2.05 79.3852 2.95C79.4572 3.148 79.3852 3.31 79.1692 3.382L78.2332 3.688ZM76.0012 4.444C75.7852 4.516 75.6412 4.426 75.5692 4.21C75.2992 3.436 74.8492 2.518 74.3812 1.852C74.3272 1.78 74.3092 1.708 74.3092 1.654C74.3092 1.546 74.3812 1.456 74.5252 1.402L75.3712 1.096C75.5512 1.024 75.6952 1.078 75.8212 1.222C76.3612 1.888 76.9192 2.806 77.2072 3.67C77.2792 3.886 77.1892 4.03 76.9912 4.102L76.0012 4.444ZM74.9572 16.252C74.7412 16.306 74.5972 16.198 74.5612 15.982C74.0572 11.806 72.6712 7.126 70.8712 3.94C70.8352 3.868 70.8172 3.814 70.8172 3.742C70.8172 3.634 70.8892 3.526 71.0692 3.49L73.8772 2.77C74.0752 2.716 74.2192 2.77 74.3092 2.95C76.1812 6.37 78.0712 11.698 78.5932 14.992C78.6292 15.208 78.5392 15.334 78.3412 15.388L74.9572 16.252ZM62.2492 15.244C62.1052 15.19 62.0332 15.1 62.0332 14.992C62.0332 14.938 62.0512 14.866 62.1052 14.794C64.2472 11.572 65.6152 7.18 66.0472 3.364C66.0652 3.13 66.1912 3.04 66.4252 3.058L69.3772 3.382C69.6112 3.4 69.7192 3.562 69.6832 3.796C69.1432 8.116 67.7752 12.832 65.8132 16.18C65.7052 16.36 65.5432 16.414 65.3632 16.342L62.2492 15.244ZM92.0932 12.112C90.2032 11.14 87.9892 10.348 85.8472 9.862V16.594C85.8472 16.828 85.7392 16.936 85.5052 16.936H82.6252C82.3912 16.936 82.2832 16.828 82.2832 16.594V2.014C82.2832 1.78 82.3912 1.672 82.6252 1.672H85.5052C85.7392 1.672 85.8472 1.78 85.8472 2.014V6.478C88.5652 6.982 91.5532 7.882 93.8212 8.89C93.9472 8.944 94.0192 9.034 94.0192 9.16C94.0192 9.214 94.0012 9.286 93.9652 9.358L92.5612 11.968C92.4532 12.166 92.2912 12.202 92.0932 12.112ZM101.898 16.396C101.682 16.414 101.556 16.288 101.556 16.054V2.806C101.556 2.59 101.682 2.464 101.898 2.464H104.616C104.85 2.464 104.958 2.59 104.958 2.806C104.886 5.83 104.742 9.142 104.724 11.968C105.894 11.284 106.848 9.88 107.568 8.26C107.622 8.134 107.712 8.062 107.802 8.062C107.874 8.062 107.964 8.098 108.036 8.17L109.908 9.934C110.052 10.078 110.088 10.204 110.034 10.33C108.756 13.102 106.2 16.198 101.898 16.396ZM93.3476 14.704C93.2576 14.632 93.2036 14.542 93.2036 14.47C93.2036 14.38 93.2576 14.29 93.3656 14.218C96.9836 11.698 96.8216 8.458 96.7136 3.076C96.7136 2.842 96.8216 2.734 97.0376 2.734H99.6836C99.9176 2.734 100.026 2.842 100.026 3.076C100.008 9.646 100.008 13.21 96.1196 16.576C96.0476 16.648 95.9576 16.684 95.8856 16.684C95.7956 16.684 95.7236 16.648 95.6336 16.576L93.3476 14.704Z" fill="white"/>
</svg>
