<svg width="56" height="56" viewBox="0 0 56 56" fill="none" xmlns="http://www.w3.org/2000/svg">
<path d="M28 56C43.464 56 56 43.464 56 28C56 12.536 43.464 0 28 0C12.536 0 0 12.536 0 28C0 43.464 12.536 56 28 56Z" fill="black"/>
<path d="M30.6638 25.8561L41.0874 14H38.6174L29.5665 24.2945L22.3377 14H14L24.9315 29.5671L14 42H16.4702L26.0281 31.1287L33.6623 42H42L30.6632 25.8561H30.6638ZM27.2805 29.7042L26.1729 28.1541L17.3603 15.8196H21.1543L28.2663 25.7739L29.3739 27.324L38.6185 40.2632H34.8244L27.2805 29.7048V29.7042Z" fill="white"/>
</svg>
