<svg width="150" height="44" viewBox="0 0 150 44" fill="none" xmlns="http://www.w3.org/2000/svg">
<g clip-path="url(#clip0_13_613)">
<path d="M0 43.4189V0.631348H20.6739V18.7353H10.318V43.4189H0ZM13.1091 6.9333H9.81917V8.28462H13.1091V6.9333ZM13.1091 12.0671H9.81917V13.4626H13.1091V12.0671ZM21.7979 42.8759V35.4878H19.9541C19.9099 38.5062 19.7267 40.71 19.3226 42.8759L11.7135 42.0234C12.2566 39.908 12.5218 37.8811 12.5723 35.4941H11.5367V28.3776H12.6607V26.3064H11.6693V20.0929H30.7646V26.3064H29.6848V28.3776H31.0362V35.4941H29.6848V42.8822H21.8042L21.7979 42.8759ZM21.7979 26.3001H20.0425V28.3713H21.7979V26.3001ZM31.213 43.4189L30.6699 36.7066H30.9856C32.0212 36.7066 32.2486 36.435 32.2486 35.5826V18.7416H21.8421V0.631348H42.5161V34.408C42.5161 42.4276 42.3835 43.4189 33.1957 43.4189H31.213ZM32.6969 6.9333H29.4512V8.28462H32.6969V6.9333ZM32.6969 12.0671H29.4512V13.4626H32.6969V12.0671Z" fill="white"/>
<path d="M44.8525 43.4633V16.9799H43.6338C43.9495 15.1361 45.2124 7.24914 45.8375 0H57.911C57.6837 2.47532 56.7428 9.90758 56.244 13.2859V43.4633H44.8525ZM69.8077 42.4719V43.4633H57.9173V24.0964H56.5218C57.8289 19.0069 58.7761 14.1447 59.1361 12.0293H58.1005V0.902985H66.341V3.83295H67.6923V0H77.0126V3.82664H78.4524V0.902985H86.8318V12.0293H71.8789C71.7463 12.7049 71.4747 13.6079 71.159 14.3278H73.0976C73.3249 13.8794 73.4575 13.5637 73.5459 13.3364H85.3037C85.3037 13.3364 85.2153 13.6521 84.8995 14.3278H86.8823V20.3203H83.2325V21.8042H86.655V26.8496H83.2325V28.3335H86.655V33.3789H83.2325V34.8628H87.1539V42.5224L69.814 42.4782L69.8077 42.4719ZM72.8197 20.314H69.3088V21.7979H72.8197V20.314ZM72.8197 26.8433H69.3088V28.3272H72.8197V26.8433ZM72.8197 33.3726H69.3088V34.8565H72.8197V33.3726Z" fill="white"/>
<path d="M120.83 35.9426V34.3197H119.39V43.4633H101.463V34.3197H100.023V35.9426H88.6757V3.69403H101.469V0H119.396V3.69403H132.189V35.9426H120.842H120.83ZM103.401 16.26H101.33V21.6211H103.401V16.26ZM119.478 16.26H117.407V21.6211H119.478V16.26Z" fill="white"/>
<path d="M149.308 0.732422H136.944V30.0952H149.308V0.732422Z" fill="white"/>
<path d="M149.308 32.7412H136.944V44.0001H149.308V32.7412Z" fill="white"/>
</g>
<defs>
<clipPath id="clip0_13_613">
<rect width="149.308" height="44" fill="white"/>
</clipPath>
</defs>
</svg>
