<svg width="65" height="60" viewBox="0 0 65 60" fill="none" xmlns="http://www.w3.org/2000/svg">
<path d="M30 60C46.5685 60 60 46.5685 60 30C60 13.4315 46.5685 0 30 0C13.4315 0 0 13.4315 0 30C0 46.5685 13.4315 60 30 60Z" fill="#E4E4E4"/>
<path d="M52.5 21.85V38.15L64.475 30L52.5 21.85Z" fill="#E4E4E4"/>
<path d="M17.92 26.528C17.8 26.504 17.728 26.42 17.716 26.288L17.536 24.644C17.512 24.476 17.62 24.404 17.788 24.452C18.124 24.548 18.448 24.596 18.736 24.596C19.276 24.596 19.696 24.44 19.924 24.212C20.164 23.972 20.296 23.66 20.296 23.348C20.296 22.712 19.744 22.088 18.4 22.088C18.052 22.088 17.656 22.124 17.188 22.22C17.188 23.108 17.188 23.996 17.188 24.836C17.2 26.144 16.336 26.684 15.328 26.684C13.936 26.684 12.28 25.64 12.28 24.176C12.28 23.624 12.508 23.012 13.072 22.376C13.672 21.704 14.356 21.248 15.124 20.924C15.124 20.504 15.124 20.072 15.124 19.64L12.868 19.652C12.712 19.652 12.64 19.568 12.64 19.424V17.852C12.64 17.696 12.712 17.624 12.856 17.624L15.112 17.612C15.112 17.192 15.1 16.772 15.1 16.388C15.1 16.244 15.184 16.16 15.328 16.16H17.044C17.188 16.16 17.272 16.244 17.272 16.388C17.26 16.772 17.26 17.18 17.248 17.6L19.444 17.588C19.564 17.588 19.636 17.648 19.66 17.744L20.764 16.94C20.812 16.904 20.872 16.88 20.92 16.88C20.98 16.88 21.028 16.904 21.088 16.952C21.904 17.636 22.732 18.548 23.128 19.364C23.188 19.484 23.152 19.592 23.044 19.664L21.592 20.612C21.544 20.648 21.496 20.66 21.46 20.66C21.388 20.66 21.328 20.612 21.28 20.516C20.908 19.736 20.32 18.932 19.672 18.296V19.388C19.672 19.532 19.588 19.616 19.444 19.616L17.212 19.628L17.2 20.42C17.644 20.348 18.052 20.312 18.436 20.312C21.088 20.312 22.384 21.836 22.384 23.42C22.384 24.128 22.132 24.836 21.628 25.436C20.944 26.24 19.96 26.648 18.904 26.648C18.58 26.648 18.256 26.612 17.92 26.528ZM15.124 22.94C14.812 23.156 14.284 23.648 14.284 24.056C14.284 24.404 14.62 24.656 14.86 24.656C15.004 24.656 15.112 24.572 15.112 24.38C15.112 23.96 15.124 23.48 15.124 22.94ZM25.192 15.98C25.192 15.86 25.264 15.788 25.384 15.788H27.064C27.184 15.788 27.256 15.86 27.256 15.98V17.348H28.096C28.216 17.348 28.288 17.42 28.288 17.54V19.064C28.288 19.148 28.276 19.208 28.252 19.292C28.084 19.772 27.82 20.276 27.484 20.756C27.808 21.104 28.18 21.416 28.552 21.62V16.244C28.552 16.124 28.624 16.052 28.744 16.052H34.48C34.6 16.052 34.672 16.124 34.672 16.244L34.636 21.62C34.636 21.752 34.564 21.812 34.444 21.812H33.376V24.668C33.376 24.8 33.436 24.848 33.508 24.86C33.556 24.86 33.592 24.872 33.64 24.86C33.82 24.824 33.832 24.668 33.868 23.384C33.868 23.216 33.964 23.156 34.096 23.216L35.14 23.732C35.236 23.78 35.284 23.888 35.272 24.08C35.2 26.324 34.972 26.768 33.592 26.876C33.4 26.888 32.932 26.888 32.704 26.864C31.744 26.78 31.396 26.444 31.396 25.604V21.812H31.084C31.012 24.416 30.268 26.012 28.732 26.936C28.684 26.96 28.648 26.972 28.612 26.972C28.552 26.972 28.516 26.96 28.468 26.912L27.22 25.676L27.244 26.864C27.244 26.984 27.172 27.056 27.052 27.056H25.348C25.228 27.056 25.156 26.984 25.156 26.864L25.204 23.264C24.964 23.468 24.736 23.66 24.532 23.804C24.496 23.828 24.448 23.852 24.424 23.852C24.352 23.852 24.304 23.804 24.28 23.72L23.668 21.932C23.632 21.824 23.656 21.74 23.764 21.68C24.676 21.116 25.492 20.204 25.996 19.304H24.268C24.148 19.304 24.076 19.232 24.076 19.112V17.54C24.076 17.42 24.148 17.348 24.268 17.348H25.192V15.98ZM30.604 17.948V19.94H32.62V17.948H30.604ZM27.22 25.328C28.552 24.644 29.116 23.612 29.188 21.812H28.744C28.744 21.836 28.732 21.872 28.72 21.908L28 23.612C27.964 23.696 27.916 23.732 27.868 23.732C27.736 23.732 27.268 23.144 27.184 23.024L27.22 25.328ZM37.18 24.68C36.556 23.552 36.364 22.004 36.364 19.892C36.364 19.064 36.388 18.152 36.436 17.144C36.448 16.988 36.532 16.916 36.688 16.928L38.68 17.144C38.824 17.156 38.896 17.264 38.872 17.408C38.704 18.62 38.62 19.7 38.62 20.636C38.62 22.088 38.824 23.132 39.22 23.636C39.316 23.756 39.424 23.816 39.544 23.816C39.856 23.816 40.252 23.408 40.612 22.592C40.66 22.496 40.72 22.436 40.78 22.436C40.828 22.436 40.876 22.472 40.924 22.52L42.208 23.864C42.268 23.924 42.292 23.984 42.292 24.044C42.292 24.092 42.28 24.152 42.244 24.212C41.536 25.64 40.528 26.312 39.544 26.312C38.644 26.312 37.768 25.748 37.18 24.68ZM44.848 24.776C44.692 24.812 44.596 24.74 44.596 24.584C44.524 22.496 43.876 19.988 42.22 18.536C42.16 18.476 42.124 18.428 42.124 18.368C42.124 18.308 42.16 18.26 42.232 18.212L43.696 17.276C43.744 17.24 43.792 17.228 43.84 17.228C43.9 17.228 43.96 17.252 44.008 17.3C45.7 18.848 46.876 21.476 46.888 24.116C46.888 24.26 46.816 24.344 46.684 24.368L44.848 24.776ZM19.2088 42.16C18.4528 43.204 16.9048 43.852 15.4168 43.852C13.5688 43.852 11.8168 42.868 11.7088 40.432C11.6368 38.776 11.8168 35.836 11.8888 33.616C11.8888 33.46 11.9728 33.388 12.1288 33.388L14.0248 33.436C14.1808 33.436 14.2528 33.52 14.2408 33.676C14.0968 35.908 13.9408 38.308 13.9888 39.928C14.0248 41.14 14.7568 41.62 15.5848 41.62C16.2328 41.62 16.9528 41.308 17.3968 40.816C17.8648 40.3 18.1168 39.616 18.3328 38.452C18.3568 38.332 18.4168 38.272 18.5008 38.272C18.5368 38.272 18.5848 38.284 18.6328 38.32L20.2408 39.364C20.3488 39.436 20.3848 39.544 20.3488 39.676C20.0848 40.66 19.7848 41.368 19.2088 42.16ZM30.8723 43.48C30.2483 42.892 29.3603 42.172 28.4603 41.596C28.3163 42.304 28.0043 42.868 27.4643 43.24C26.9723 43.576 26.2643 43.768 25.5323 43.768C24.4763 43.768 23.3843 43.384 22.8443 42.52C22.6163 42.148 22.4723 41.704 22.4723 41.236C22.4723 40.72 22.6523 40.192 23.0843 39.712C23.6603 39.088 24.5603 38.764 25.6403 38.764C25.8683 38.764 26.0963 38.776 26.3363 38.812C26.3243 37.372 26.2403 35.44 26.1563 33.652C26.1443 33.496 26.2283 33.412 26.3843 33.412L28.2923 33.448C28.4363 33.448 28.5203 33.532 28.5203 33.676C28.5203 34.264 28.5203 34.852 28.5323 35.428L31.7003 35.404C31.8563 35.404 31.9283 35.476 31.9283 35.632V37.24C31.9283 37.384 31.8563 37.468 31.7003 37.468L28.5323 37.504C28.5323 38.152 28.5323 38.776 28.5323 39.364C29.7323 39.82 31.0283 40.54 32.3003 41.524C32.3723 41.572 32.4083 41.632 32.4083 41.704C32.4083 41.752 32.3843 41.8 32.3483 41.848L31.1843 43.444C31.1363 43.516 31.0763 43.552 31.0163 43.552C30.9683 43.552 30.9203 43.528 30.8723 43.48ZM26.3723 40.576C26.1683 40.528 25.9523 40.504 25.7243 40.504C25.2683 40.504 24.8243 40.624 24.6083 40.996C24.5603 41.08 24.5363 41.164 24.5363 41.248C24.5363 41.392 24.5963 41.536 24.7043 41.632C24.8723 41.788 25.1723 41.872 25.4603 41.872C25.7123 41.872 25.9523 41.812 26.0963 41.68C26.3843 41.44 26.3843 40.972 26.3723 40.576ZM41.9003 35.812C40.0163 35.32 38.0843 35.164 36.4043 35.092C36.2483 35.08 36.1763 34.996 36.2123 34.84L36.5603 33.268C36.5843 33.136 36.6803 33.064 36.8123 33.076C38.5283 33.22 40.6523 33.436 42.3323 33.772C42.4763 33.796 42.5483 33.892 42.5123 34.036L42.1763 35.644C42.1403 35.8 42.0563 35.848 41.9003 35.812ZM36.9923 43.768C36.8603 43.78 36.7763 43.732 36.7163 43.612L35.9603 41.92C35.8883 41.764 35.9603 41.656 36.1283 41.644C37.5323 41.584 38.9243 41.476 40.0403 40.888C40.7243 40.528 41.1443 39.856 41.1443 39.256C41.1443 38.656 40.7123 38.128 39.7163 38.068C38.7203 38.008 37.2323 38.212 35.3723 38.824C35.2283 38.872 35.1203 38.812 35.0843 38.668L34.6283 36.964C34.5923 36.82 34.6403 36.724 34.7963 36.688C36.7883 36.184 38.5643 35.956 39.8243 36.004C42.3563 36.088 43.4963 37.54 43.4963 39.136C43.4963 40.504 42.6563 41.992 41.1203 42.808C40.1483 43.324 38.6963 43.672 36.9923 43.768ZM46.4363 40.216C46.3163 40.216 46.2203 40.132 46.2203 40L46.0643 33.952C46.0643 33.832 46.1483 33.736 46.2803 33.736H48.2483C48.3803 33.736 48.4523 33.832 48.4523 33.952L48.2963 40C48.2963 40.132 48.2123 40.216 48.0803 40.216H46.4363ZM45.8963 42.328C45.8963 41.56 46.4963 41.032 47.2643 41.032C48.0203 41.032 48.6203 41.56 48.6203 42.328C48.6203 43.108 48.0203 43.636 47.2643 43.636C46.4963 43.636 45.8963 43.108 45.8963 42.328Z" fill="#3B1D59"/>
</svg>
