<svg width="236" height="156" viewBox="0 0 236 156" fill="none" xmlns="http://www.w3.org/2000/svg">
<path d="M148.149 11.392L148.653 11.608C148.197 12.928 147.525 14.92 147.309 15.784C147.117 16.84 147.045 17.344 147.045 17.704C147.045 18.64 147.573 19.48 147.573 20.296C147.573 21.376 147.045 21.976 146.085 21.976C145.413 21.976 144.741 21.52 144.213 20.8C143.205 19.48 142.677 17.536 142.677 14.608C142.677 12.76 143.325 9.664 143.685 8.224C143.997 7.048 144.213 6.016 144.213 4.792C144.213 3.568 143.541 2.416 143.037 1.816L143.205 1.576C144.141 1.744 144.765 1.984 145.437 2.392C146.301 2.896 147.741 4.36 147.741 5.824C147.741 6.568 147.333 7.048 146.805 8.008C145.773 9.712 144.789 12.112 144.789 14.464C144.789 14.944 144.837 15.52 144.933 15.784C145.101 16.168 145.365 16.192 145.605 15.808C146.205 14.92 147.477 12.592 148.149 11.392ZM156.213 16.648C155.349 16.408 154.509 16.336 153.669 16.336C152.397 16.336 151.221 16.888 151.221 17.824C151.221 18.616 152.253 18.928 153.237 18.928C155.565 18.928 156.213 18.184 156.213 16.648ZM153.549 3.064L153.477 2.752C154.149 2.224 155.157 1.552 155.853 1.552C157.773 1.552 159.405 2.488 159.405 3.232C159.405 3.856 159.141 4.096 158.997 4.864C158.925 5.176 158.853 5.656 158.781 6.256C160.149 5.776 160.725 5.44 160.821 5.44C161.877 5.44 162.981 5.92 162.981 6.808C162.981 7.744 162.525 7.912 161.253 8.44C160.797 8.632 159.789 8.92 158.565 9.16C158.541 9.64 158.541 10.144 158.541 10.624C158.541 12.376 158.661 13.696 158.781 14.8C160.797 15.328 162.069 16.288 162.885 17.104C163.437 17.656 163.701 18.208 163.701 18.808C163.701 19.792 163.173 20.344 162.405 20.344C161.757 20.344 161.349 19.912 160.365 19.024C159.933 18.616 159.501 18.28 159.069 17.992C158.997 20.368 157.389 21.448 154.125 21.448C151.941 21.448 149.925 20.248 149.925 18.016C149.925 15.472 152.493 14.392 155.349 14.392C155.613 14.392 155.853 14.392 156.117 14.416C156.045 13.24 155.973 11.848 155.973 10.576V9.544C155.277 9.616 154.605 9.664 153.933 9.664C152.349 9.664 151.005 9.52 149.877 6.424L150.117 6.232C151.437 7.048 152.517 7.264 153.333 7.264C154.341 7.264 155.205 7.168 155.997 7.024V5.032C155.997 3.76 155.757 3.736 155.301 3.544C154.749 3.304 154.101 3.184 153.549 3.064Z" fill="white"/>
<path d="M124.557 11.3919L125.061 11.6079C124.605 12.9279 123.885 14.6799 123.717 15.5679C123.525 16.6239 123.453 17.1279 123.453 17.4879C123.453 18.4239 123.981 19.2639 123.981 20.0799C123.981 21.1599 123.453 21.7599 122.493 21.7599C121.821 21.7599 121.149 21.3039 120.597 20.5839C119.589 19.2639 119.085 17.5359 119.085 14.6079C119.085 12.7599 119.709 9.99987 120.093 8.55987C120.405 7.38387 120.621 6.35187 120.621 5.12787C120.621 3.90387 119.949 2.75187 119.445 2.15187L119.613 1.91187C120.549 2.07987 121.173 2.31987 121.845 2.72787C122.709 3.25587 124.149 4.69587 124.149 6.15987C124.149 6.90387 123.789 7.40787 123.213 8.34387C122.157 10.0479 121.245 12.3039 121.245 14.1279C121.245 14.6079 121.317 15.1119 121.437 15.3759C121.605 15.7599 121.821 15.7839 122.085 15.3999C122.709 14.5119 123.885 12.5919 124.557 11.3919ZM126.885 13.3359L127.221 13.3119C127.365 13.8639 127.533 14.5119 127.797 14.9679C128.805 16.7199 129.861 17.2479 132.861 17.2479C135.213 17.2479 136.245 16.7679 136.701 16.7679C137.925 16.7679 139.245 17.3679 139.245 18.4479C139.245 20.2239 136.701 20.5599 133.653 20.5599C128.709 20.5599 126.933 18.2319 126.741 15.2799C126.693 14.5599 126.789 13.8639 126.885 13.3359ZM127.485 7.19187L127.341 6.87987C129.141 4.93587 131.949 4.21587 133.797 4.21587C135.381 4.21587 136.389 4.43187 137.229 4.93587C138.093 5.43987 138.285 5.99187 138.285 6.47187C138.285 7.23987 137.877 7.55187 137.229 7.69586C136.437 7.86387 135.429 7.86387 134.373 8.12787C133.269 8.41587 131.733 9.06387 130.389 9.85587L130.125 9.54387C131.157 8.60787 132.117 7.71987 132.453 7.26387C132.693 6.95187 132.885 6.66387 131.013 6.66387C130.437 6.66387 129.501 6.71187 127.485 7.19187Z" fill="white"/>
<path d="M101.421 13.1199H108.453V8.27193H101.589V9.78392C101.589 10.8879 101.565 11.9919 101.421 13.1199ZM108.453 2.94392H101.589V7.59992H108.453V2.94392ZM109.797 0.471924L112.989 2.99192C112.845 3.18392 112.557 3.39992 112.053 3.49592V18.8079C112.053 21.1359 111.501 22.4319 107.493 22.7919C107.397 21.6159 107.229 20.7759 106.773 20.2479C106.293 19.7199 105.717 19.3359 104.253 19.0479V18.7599C104.253 18.7599 107.301 18.9279 107.925 18.9279C108.333 18.9279 108.453 18.7359 108.453 18.3999V13.7919H101.325C100.773 17.2479 99.0448 20.6079 93.8608 22.8159L93.6928 22.6479C97.6048 19.0719 98.0608 14.5599 98.0608 9.80792V0.927924L102.117 2.27192H108.213L109.797 0.471924Z" fill="white"/>
<path d="M81.4912 17.5359H91.5472V20.4879H79.5232V18.3279C80.9152 16.8159 82.2592 15.3039 83.4352 13.9599C86.0512 11.0079 87.2272 9.42386 87.2272 6.83186C87.2272 4.45586 86.0992 2.96786 84.2512 2.96786C83.9632 2.96786 83.6512 2.99186 83.3392 3.06386L82.8112 5.43986C82.5472 7.04786 81.7552 7.43186 81.0112 7.43186C80.3152 7.43186 79.7392 7.04786 79.4512 6.44786C79.6672 3.68786 82.3792 2.15186 85.5952 2.15186C89.3872 2.15186 91.1392 4.21586 91.1392 7.07186C91.1392 9.63986 88.9072 11.5119 84.4672 15.0159C83.6992 15.6399 82.5952 16.5519 81.4912 17.5359Z" fill="white"/>
<path d="M232.579 152.936C230.947 152.936 229.699 151.688 229.699 150.12C229.699 148.584 230.947 147.272 232.579 147.272C234.211 147.272 235.491 148.584 235.491 150.12C235.491 151.688 234.211 152.936 232.579 152.936ZM232.611 127.88C234.211 127.88 235.459 128.936 235.459 131.112C235.459 132.648 235.171 135.144 233.891 140.872L233.091 144.712H232.131L231.331 140.872C230.051 135.112 229.763 132.648 229.763 131.112C229.763 128.936 231.011 127.88 232.611 127.88Z" fill="white"/>
<path d="M189.955 142.248C188.899 142.248 188.035 141.384 188.035 140.328C188.035 139.272 188.899 138.408 189.955 138.408C191.011 138.408 191.875 139.272 191.875 140.328C191.875 141.384 191.011 142.248 189.955 142.248ZM200.611 142.248C199.555 142.248 198.691 141.384 198.691 140.328C198.691 139.272 199.555 138.408 200.611 138.408C201.667 138.408 202.531 139.272 202.531 140.328C202.531 141.384 201.667 142.248 200.611 142.248ZM211.267 142.248C210.211 142.248 209.347 141.384 209.347 140.328C209.347 139.272 210.211 138.408 211.267 138.408C212.323 138.408 213.187 139.272 213.187 140.328C213.187 141.384 212.323 142.248 211.267 142.248Z" fill="white"/>
<path d="M170.883 143.912V150.184C172.259 150.312 173.795 150.344 175.491 150.344C177.283 150.344 181.635 150.344 183.715 150.312V150.664C182.147 151.048 181.411 152.84 181.379 154.76H175.267C167.907 154.76 163.779 153.384 161.475 147.72C159.971 150.76 157.507 153.512 153.603 155.496L153.379 155.208C157.475 150.984 158.659 144.808 158.819 140.104L164.675 141.064C164.579 141.512 164.227 141.832 163.427 141.864C163.139 143.4 162.691 144.968 162.051 146.472C163.139 147.88 164.515 148.776 166.243 149.352V136.968H158.211L157.955 136.072H174.051L176.259 133.352L177.251 134.088C177.475 133.128 177.635 132.104 177.763 131.208H159.043C159.267 133.576 158.435 135.24 157.219 135.976C156.003 136.712 154.211 136.232 153.731 134.76C153.315 133.352 154.147 132.296 155.331 131.752C156.451 131.208 157.859 129.8 157.891 128.264H158.275C158.563 129 158.755 129.672 158.883 130.312H166.147V125.192L172.099 125.608C172.067 126.056 171.843 126.376 170.947 126.536V130.312H177.539L179.779 128.072L183.651 131.72C183.395 132.008 183.075 132.104 182.403 132.136C181.379 133.032 179.843 134.12 178.403 134.952C179.043 135.464 179.715 135.976 180.259 136.456C180.195 136.808 179.811 136.968 179.363 136.968H170.883V143.016H174.531L176.675 140.168C176.675 140.168 179.139 142.088 180.611 143.4C180.515 143.752 180.163 143.912 179.715 143.912H170.883Z" fill="white"/>
<path d="M147.715 135.496L151.971 139.56C151.683 139.848 151.363 139.976 150.627 140.008C148.643 141.896 145.219 144.328 142.499 145.736L142.307 145.544C143.363 143.688 144.547 140.936 145.251 138.888H138.979V150.024C138.979 153.096 138.115 155.176 132.675 155.528C132.579 153.992 132.323 152.872 131.587 152.168C130.915 151.496 130.083 150.952 127.843 150.6V150.216C127.843 150.216 132.579 150.472 133.475 150.472C133.987 150.472 134.179 150.248 134.179 149.896V138.888H121.795L121.507 137.992H136.131C135.267 136.392 132.835 133.576 129.603 131.432L129.699 131.112C133.667 131.112 136.291 131.784 137.955 132.712C139.235 131.528 140.643 130.088 141.603 128.872H125.763L125.475 127.976H141.923L144.451 125.64L148.483 129.48C148.195 129.768 147.875 129.864 147.139 129.896C145.027 131.08 141.731 132.424 138.883 133.384C140.803 135.016 140.451 137.064 139.203 137.992H145.155L147.715 135.496Z" fill="white"/>
<path d="M94.9471 130.408L95.3951 130.216C96.2271 131.208 97.2511 132.008 98.3391 132.008C100.803 132.008 106.051 130.984 107.459 130.664C108.323 130.472 108.963 129.352 109.731 129.352C111.299 129.352 114.627 132.232 114.627 133.448C114.627 134.504 112.867 135.112 112.515 135.592C111.395 137.128 109.891 139.72 108.003 141.864C113.219 143.176 117.667 146.024 117.667 149.96C117.667 151.112 116.739 152.488 115.203 152.488C113.731 152.488 112.739 151.56 111.971 149.992C110.819 147.56 109.891 145.064 106.947 142.952C104.003 145.896 98.8191 150.664 90.2111 153L89.8911 152.424C97.4431 148.52 105.475 140.04 107.875 133.928C108.067 133.416 107.875 133.256 107.523 133.256C106.755 133.256 102.851 134.536 101.315 135.144C100.227 135.56 99.7471 136.424 98.7551 136.424C97.0911 136.424 95.4591 134.28 95.0751 132.936C94.8511 132.136 94.8511 131.272 94.9471 130.408Z" fill="white"/>
<path d="M60.6689 137.288L61.1489 137.128C62.2369 138.472 62.8129 139.272 64.7009 139.272C68.4129 139.272 77.2769 138.664 79.4529 138.472C81.5969 138.28 83.3249 137.96 84.0929 137.96C86.3649 137.96 88.1569 139.208 88.1569 140.84C88.1569 141.96 87.1329 142.44 85.6609 142.44C84.3169 142.44 83.1969 142.344 80.7649 142.344C78.1409 142.344 71.9329 142.792 69.4369 143.048C66.8769 143.304 66.3329 144.2 64.9889 144.2C63.5169 144.2 61.3089 141.896 60.6369 140.072C60.3489 139.272 60.4769 138.152 60.6689 137.288Z" fill="white"/>
<path d="M50.3009 140.584C49.8209 148.36 44.7649 152.84 36.5089 154.856L36.2209 154.344C42.2049 151.016 45.5009 146.856 46.0449 140.648C46.2689 138.504 46.2049 133.384 46.1089 131.752C46.0449 130.888 45.9809 130.6 45.3729 130.216C44.8289 129.864 44.1249 129.608 43.4529 129.352L43.4209 128.872C44.3809 128.072 45.9169 127.112 46.8769 127.112C48.2849 127.112 51.5169 128.904 51.5169 130.024C51.5169 130.92 50.8129 131.336 50.7489 132.296C50.6209 134.12 50.4289 138.664 50.3009 140.584ZM34.4289 130.792C33.9809 130.472 33.2449 130.088 32.5089 129.8V129.32C33.3729 128.872 34.4289 128.392 35.4209 128.392C36.9569 128.392 40.4129 130.216 40.4129 131.56C40.4129 132.52 39.5809 133.064 39.5169 134.44C39.4209 135.848 39.4529 140.744 39.4529 143.368C39.4529 145.288 38.6849 146.152 37.3409 146.152C36.0929 146.152 34.8129 144.264 34.8129 142.024C34.8129 141.224 35.3569 140.488 35.3569 138.504C35.3569 136.872 35.3569 133.352 35.1649 131.976C35.0689 131.4 34.8769 131.112 34.4289 130.792Z" fill="white"/>
<path d="M18.3009 140.584C17.8209 148.36 12.7649 152.84 4.50888 154.856L4.22088 154.344C10.2049 151.016 13.5009 146.856 14.0449 140.648C14.2689 138.504 14.2049 133.384 14.1089 131.752C14.0449 130.888 13.9809 130.6 13.3729 130.216C12.8289 129.864 12.1249 129.608 11.4529 129.352L11.4209 128.872C12.3809 128.072 13.9169 127.112 14.8769 127.112C16.2849 127.112 19.5169 128.904 19.5169 130.024C19.5169 130.92 18.8129 131.336 18.7489 132.296C18.6209 134.12 18.4289 138.664 18.3009 140.584ZM2.42888 130.792C1.98088 130.472 1.24488 130.088 0.508881 129.8V129.32C1.37288 128.872 2.42888 128.392 3.42088 128.392C4.95688 128.392 8.41288 130.216 8.41288 131.56C8.41288 132.52 7.58088 133.064 7.51688 134.44C7.42088 135.848 7.45288 140.744 7.45288 143.368C7.45288 145.288 6.68488 146.152 5.34088 146.152C4.09288 146.152 2.81288 144.264 2.81288 142.024C2.81288 141.224 3.35688 140.488 3.35688 138.504C3.35688 136.872 3.35688 133.352 3.16488 131.976C3.06888 131.4 2.87688 131.112 2.42888 130.792Z" fill="white"/>
</svg>
