<svg width="265" height="20" viewBox="0 0 265 20" fill="none" xmlns="http://www.w3.org/2000/svg">
<path d="M17.6973 1.38C17.8973 1.38 18.0173 1.5 18.0173 1.7V15.96C18.0173 18.88 17.3373 19.76 14.1773 19.7C13.9773 19.7 13.8773 19.62 13.8173 19.44L13.0573 17.14C13.0373 17.1 13.0373 17.06 13.0373 17.02C13.0373 16.88 13.1373 16.78 13.3373 16.78H13.3573C14.3973 16.82 14.6373 16.54 14.6373 15.6L14.6173 9.08H9.91734C9.71734 9.08 9.59734 8.96 9.59734 8.76V1.7C9.59734 1.5 9.71734 1.38 9.91734 1.38H17.6973ZM8.57734 1.38C8.77734 1.38 8.89734 1.5 8.89734 1.7V8.76C8.89734 8.96 8.77734 9.08 8.57734 9.08H3.93734V19.44C3.93734 19.64 3.81734 19.76 3.61734 19.76H0.877344C0.677344 19.76 0.557344 19.64 0.557344 19.44V1.7C0.557344 1.5 0.677344 1.38 0.877344 1.38H8.57734ZM3.93734 3.82V4.6H5.93734V3.82H3.93734ZM12.5773 3.82V4.6H14.6173V3.82H12.5773ZM14.6173 6.92V6.12H12.5773V6.92H14.6173ZM5.93734 6.92V6.12H3.93734V6.92H5.93734ZM5.91734 13.1C5.91734 13.02 5.91734 12.94 5.91734 12.86L5.93734 12.36C5.93734 12.28 5.93734 12.2 5.93734 12.12H4.97734C4.77734 12.12 4.65734 12 4.65734 11.8V9.98C4.65734 9.78 4.77734 9.66 4.97734 9.66H13.6373C13.8373 9.66 13.9573 9.78 13.9573 9.98V11.8C13.9573 12 13.8373 12.12 13.6373 12.12H12.8573V13.1H13.8173C14.0173 13.1 14.1373 13.2 14.1373 13.42V15.42C14.1373 15.62 14.0173 15.74 13.8173 15.74H12.8573V19.06C12.8573 19.26 12.7373 19.38 12.5373 19.38H10.0973C9.89734 19.38 9.77734 19.26 9.77734 19.06V15.74H8.91734C8.69734 17.28 8.17734 18.5 7.09734 19.44C7.01734 19.5 6.93734 19.54 6.85734 19.54C6.79734 19.54 6.73734 19.52 6.65734 19.48L4.31734 18.14C4.19734 18.08 4.13734 18 4.13734 17.92C4.13734 17.84 4.19734 17.76 4.31734 17.7C5.19734 17.18 5.61734 16.6 5.83734 15.74H4.75734C4.55734 15.74 4.43734 15.62 4.43734 15.42V13.42C4.43734 13.2 4.55734 13.1 4.75734 13.1H5.91734ZM9.91734 13.1V12.12H8.87734C8.87734 12.46 8.85734 12.82 8.85734 13.1H9.91734ZM25.9773 1.78C26.0373 1.8 26.0773 1.82 26.1173 1.84C26.1173 1.64 26.2373 1.52 26.4373 1.52H29.0573C29.2573 1.52 29.3773 1.64 29.3773 1.84V3.4H30.4973V1.3C30.4973 1.1 30.6173 0.98 30.8173 0.98H33.6773C33.8773 0.98 33.9973 1.1 33.9973 1.3V3.4H35.1373V1.84C35.1373 1.64 35.2573 1.52 35.4573 1.52H38.0973C38.2973 1.52 38.4173 1.64 38.4173 1.84V5.96C38.4173 6.16 38.2973 6.28 38.0973 6.28H26.4373C26.2373 6.28 26.1173 6.16 26.1173 5.96V2.56C25.8573 3.6 25.4973 4.58 25.0373 5.56V10.68C26.0373 9.64 26.9973 7.96 27.3373 6.64C27.3973 6.44 27.4973 6.36 27.6973 6.38L30.4173 6.72C30.6373 6.74 30.7373 6.88 30.6573 7.08C30.5973 7.26 30.5573 7.44 30.4773 7.64H31.7173C31.9173 7.32 32.0973 6.98 32.2173 6.66C32.2773 6.48 32.3973 6.4 32.5973 6.42L35.3773 6.7C35.6173 6.72 35.7173 6.88 35.5973 7.1C35.4973 7.28 35.3973 7.48 35.2773 7.64H38.1573C38.3573 7.64 38.4773 7.76 38.4773 7.96V9.92C38.4773 10.12 38.3573 10.24 38.1573 10.24H34.9973V10.98H37.7373C37.9373 10.98 38.0573 11.1 38.0573 11.3V12.78C38.0573 12.98 37.9373 13.1 37.7373 13.1H34.9973V13.86H37.7373C37.9373 13.86 38.0573 13.98 38.0573 14.18V15.7C38.0573 15.9 37.9373 16.02 37.7373 16.02H34.9973V16.82H38.3973C38.5973 16.82 38.7173 16.94 38.7173 17.14V19.24C38.7173 19.44 38.5973 19.56 38.3973 19.56H26.7573C26.5573 19.56 26.4373 19.44 26.4373 19.24V13.9C26.3173 14.04 26.2173 14.18 26.0973 14.3C26.0173 14.38 25.9573 14.42 25.8773 14.42C25.7973 14.42 25.6973 14.36 25.6573 14.22L25.0373 12.56V19.46C25.0373 19.66 24.9173 19.78 24.7173 19.78H21.8573C21.6573 19.78 21.5373 19.66 21.5373 19.46V10.72C21.2973 11.02 21.0573 11.28 20.8373 11.5C20.7773 11.56 20.6973 11.6 20.6373 11.6C20.5373 11.6 20.4573 11.5 20.4173 11.36L19.4773 7.56C19.4373 7.4 19.4773 7.26 19.5973 7.14C21.0773 5.62 22.0973 3.56 22.6573 1.3C22.6973 1.1 22.8573 1.02 23.0573 1.06L25.9773 1.78ZM31.7773 11.02V10.2H29.7373V11.02H31.7773ZM31.7773 13.9V13.06H29.7373V13.9H31.7773ZM31.7773 16.86V15.98H29.7373V16.86H31.7773ZM43.2173 18.66C42.9973 18.74 42.8373 18.68 42.7173 18.48L40.8973 15.74C40.8373 15.66 40.8173 15.6 40.8173 15.52C40.8173 15.4 40.9173 15.28 41.0973 15.24C47.1373 13.56 50.2373 8.68 50.6773 6.88C50.0373 6.88 49.3773 6.88 48.7373 6.88L44.8373 6.94C44.1973 6.94 43.5373 6.94 42.8973 6.94C42.6573 6.94 42.5173 6.82 42.5173 6.56V3.66C42.5173 3.42 42.6573 3.28 42.8973 3.28H55.2573C55.4973 3.28 55.6373 3.42 55.5973 3.68C55.2773 6.32 54.2173 8.9 52.6573 11.2C54.3573 12.44 56.2173 13.92 57.5973 15.56C57.6773 15.64 57.6973 15.74 57.6973 15.82C57.6973 15.92 57.6573 16.02 57.5573 16.1L54.9773 18.46C54.8973 18.54 54.7973 18.58 54.7173 18.58C54.6173 18.58 54.5373 18.52 54.4573 18.42C53.3373 16.86 51.8773 15.18 50.4373 13.94C48.3773 16.06 45.8773 17.74 43.2173 18.66ZM64.4013 19.48C64.1813 19.54 64.0213 19.48 63.9013 19.32L61.8613 16.74C61.8013 16.66 61.7613 16.58 61.7613 16.52C61.7613 16.38 61.8613 16.28 62.0413 16.24C67.6213 14.74 69.1213 11.76 69.6613 8.08H65.6413C64.7813 9.92 63.6813 11.5 62.3413 12.6C62.2613 12.66 62.1813 12.7 62.0813 12.7C62.0013 12.7 61.9013 12.66 61.8013 12.58L59.3213 10.54C59.2213 10.46 59.1613 10.36 59.1613 10.28C59.1613 10.18 59.2213 10.08 59.3413 10C62.0213 8 63.2413 4.58 63.7213 1.98C63.7613 1.74 63.9013 1.64 64.1413 1.66L67.1413 2C67.3813 2.02 67.5013 2.18 67.4613 2.42C67.3213 3.18 67.1213 3.96 66.9013 4.72H76.7613C77.0013 4.72 77.1413 4.86 77.1413 5.1V7.7C77.1413 7.96 77.0013 8.08 76.7613 8.08H73.4213C72.9413 12.36 71.4213 17.32 64.4013 19.48ZM96.5013 4.58C96.2613 4.68 96.1013 4.62 96.0013 4.38C95.6013 3.52 94.9813 2.48 94.3013 1.68C94.2213 1.6 94.1813 1.5 94.1813 1.42C94.1813 1.32 94.2613 1.22 94.4013 1.16L95.5213 0.659999C95.7213 0.559999 95.8813 0.579999 96.0413 0.739999C96.7213 1.46 97.5613 2.6 97.9613 3.48C98.0613 3.7 98.0013 3.88 97.7813 3.98L96.5013 4.58ZM82.5813 18.92C82.3413 18.96 82.1813 18.86 82.1013 18.64L80.9613 15.64C80.8613 15.38 80.9813 15.22 81.2613 15.18C88.5213 14.28 91.2613 10.86 93.3213 5.7C93.2213 5.68 93.1613 5.6 93.1013 5.46C92.7413 4.54 92.1413 3.54 91.5013 2.76C91.4213 2.66 91.3813 2.58 91.3813 2.5C91.3813 2.4 91.4613 2.3 91.6013 2.24L92.7813 1.7C92.9813 1.6 93.1613 1.62 93.3013 1.78C94.0013 2.52 94.7213 3.56 95.1413 4.5C95.2413 4.74 95.1813 4.9 94.9613 5L94.7413 5.1L96.8013 6.42C96.9813 6.54 97.0413 6.68 96.9813 6.86C94.6813 12.96 90.8613 17.6 82.5813 18.92ZM86.6613 7.52C85.4613 6.62 83.5813 5.72 82.0013 5.12C81.8413 5.06 81.7413 4.94 81.7413 4.82C81.7413 4.76 81.7813 4.68 81.8213 4.6L83.2413 2.4C83.3613 2.22 83.5213 2.16 83.7413 2.22C85.7413 2.76 87.4413 3.64 88.8013 4.72C88.9013 4.8 88.9613 4.9 88.9613 5C88.9613 5.08 88.9213 5.18 88.8613 5.26L87.2013 7.46C87.1213 7.58 87.0213 7.62 86.9213 7.62C86.8413 7.62 86.7613 7.58 86.6613 7.52ZM84.1413 12.08C83.0213 11.14 81.2613 10.2 79.6813 9.62C79.5213 9.56 79.4213 9.46 79.4213 9.34C79.4213 9.28 79.4613 9.2 79.5013 9.12L80.8813 6.78C81.0013 6.6 81.1613 6.52 81.3813 6.58C83.0613 7.06 84.9413 8 86.2013 9.04C86.3013 9.12 86.3413 9.22 86.3413 9.32C86.3413 9.38 86.3213 9.48 86.2613 9.56L84.6813 12C84.6013 12.12 84.5013 12.18 84.4013 12.18C84.3213 12.18 84.2213 12.16 84.1413 12.08ZM101.191 18.26C100.951 18.26 100.811 18.12 100.811 17.88V15.2C100.811 14.96 100.951 14.82 101.191 14.82H108.191C108.491 13.02 108.731 11.22 108.911 9.42H102.611C102.371 9.42 102.231 9.28 102.231 9.04V6.42C102.231 6.18 102.371 6.04 102.611 6.04H112.611C112.851 6.04 112.991 6.18 112.971 6.44C112.691 9.22 112.351 12.02 111.951 14.82H114.711C114.951 14.82 115.091 14.96 115.091 15.2V17.88C115.091 18.12 114.951 18.26 114.711 18.26H101.191ZM119.019 12.46C118.779 12.46 118.639 12.32 118.639 12.08V8.74C118.639 8.5 118.779 8.36 119.019 8.36H134.359C134.599 8.36 134.739 8.5 134.739 8.74V12.1C134.739 12.34 134.599 12.48 134.359 12.48L119.019 12.46ZM145.298 18.44C145.058 18.46 144.918 18.32 144.918 18.06V3.34C144.918 3.1 145.058 2.96 145.298 2.96H148.318C148.578 2.96 148.698 3.1 148.698 3.34C148.618 6.7 148.458 10.38 148.438 13.52C149.738 12.76 150.798 11.2 151.598 9.4C151.658 9.26 151.758 9.18 151.858 9.18C151.938 9.18 152.038 9.22 152.118 9.3L154.198 11.26C154.358 11.42 154.398 11.56 154.338 11.7C152.918 14.78 150.078 18.22 145.298 18.44ZM135.798 16.56C135.698 16.48 135.638 16.38 135.638 16.3C135.638 16.2 135.698 16.1 135.818 16.02C139.838 13.22 139.658 9.62 139.538 3.64C139.538 3.38 139.658 3.26 139.898 3.26H142.838C143.098 3.26 143.218 3.38 143.218 3.64C143.198 10.94 143.198 14.9 138.878 18.64C138.798 18.72 138.698 18.76 138.618 18.76C138.518 18.76 138.438 18.72 138.338 18.64L135.798 16.56ZM164.438 19.04C161.738 18.74 160.378 17.18 160.378 15.44C160.378 14.16 161.118 12.78 162.638 11.74C163.258 11.32 164.038 10.9 164.958 10.46C164.678 10.3 164.358 10.22 164.018 10.22C163.078 10.22 161.978 10.84 161.138 12C161.098 12.06 161.078 12.08 161.038 12.12C160.478 12.88 159.938 13.62 159.438 14.32C159.358 14.42 159.258 14.48 159.158 14.48C159.078 14.48 158.978 14.44 158.898 14.38L156.758 12.7C156.658 12.62 156.598 12.52 156.598 12.42C156.598 12.34 156.638 12.24 156.718 12.16C158.218 10.58 159.638 8.7 160.538 6.88H157.738C157.498 6.88 157.358 6.74 157.358 6.5V4.02C157.358 3.78 157.498 3.64 157.738 3.64H161.778C162.018 2.96 162.238 2.32 162.398 1.76C162.458 1.54 162.618 1.42 162.858 1.48L165.798 2.16C166.038 2.22 166.138 2.38 166.038 2.64C165.898 3 165.758 3.34 165.638 3.64H171.098C171.338 3.64 171.478 3.78 171.478 4.02V6.5C171.478 6.74 171.338 6.88 171.098 6.88H164.198C164.038 7.2 163.858 7.56 163.678 7.94C164.078 7.84 164.518 7.78 164.938 7.78C166.098 7.78 167.298 8.2 168.138 9.14C169.278 8.72 170.498 8.28 171.758 7.82C171.998 7.74 172.178 7.82 172.258 8.04L173.218 10.6C173.298 10.84 173.218 11.02 172.978 11.08C171.698 11.44 170.458 11.8 169.318 12.14C169.338 12.36 169.358 12.58 169.358 12.82C169.358 13.36 169.298 13.94 169.198 14.56C169.158 14.8 169.018 14.92 168.798 14.92L166.178 14.94C165.918 14.94 165.778 14.78 165.838 14.5C165.938 14.06 165.978 13.64 165.998 13.28C165.418 13.52 163.878 14.24 163.878 15.04C163.878 15.38 164.178 15.64 164.758 15.78C165.238 15.9 165.898 15.94 166.678 15.94C168.118 15.94 169.938 15.76 171.618 15.48C171.658 15.48 171.678 15.48 171.718 15.48C171.918 15.48 172.018 15.6 172.018 15.8L171.978 18.52C171.978 18.76 171.838 18.9 171.598 18.92C170.018 19.1 168.618 19.2 167.278 19.2C166.298 19.2 165.358 19.14 164.438 19.04ZM184.438 19.16C179.498 19.16 176.198 15.76 176.198 10.7C176.198 5.64 179.738 2.24 184.458 2.24C187.998 2.24 190.478 3.9 191.618 6.8C191.638 6.86 191.658 6.92 191.658 6.96C191.658 7.1 191.558 7.22 191.398 7.24L187.998 8.14C187.958 8.16 187.918 8.18 187.878 8.18C187.758 8.18 187.638 8.1 187.558 7.98C186.898 6.84 185.858 6.26 184.458 6.26C182.078 6.26 180.478 8 180.478 10.7C180.478 13.42 182.098 15.14 184.458 15.14C186.078 15.14 187.358 14.48 187.958 12.82C188.058 12.6 188.178 12.52 188.378 12.58L191.758 13.48C191.978 13.54 192.058 13.68 192.018 13.84C191.058 16.96 188.338 19.16 184.438 19.16ZM194.967 18.84C194.747 18.84 194.627 18.7 194.627 18.48V2.92C194.627 2.7 194.747 2.56 194.967 2.56H198.407C198.627 2.56 198.767 2.7 198.767 2.92V8.58H204.787V2.92C204.787 2.7 204.907 2.56 205.127 2.56H208.567C208.767 2.56 208.927 2.7 208.927 2.92V18.48C208.927 18.7 208.767 18.84 208.567 18.84H205.127C204.907 18.84 204.787 18.7 204.787 18.48V12.48H198.767V18.48C198.767 18.7 198.627 18.84 198.407 18.84H194.967ZM212.447 18.84C212.227 18.84 212.107 18.7 212.107 18.48V2.92C212.107 2.7 212.227 2.56 212.447 2.56H223.167C223.367 2.56 223.527 2.7 223.527 2.92V5.78C223.527 6 223.367 6.14 223.167 6.14H216.207V8.8H222.347C222.567 8.8 222.707 8.92 222.707 9.14V11.9C222.707 12.12 222.567 12.26 222.347 12.26H216.207V15.26H223.427C223.627 15.26 223.787 15.4 223.787 15.62V18.48C223.787 18.7 223.627 18.84 223.427 18.84H212.447ZM233.949 19.16C229.009 19.16 225.709 15.76 225.709 10.7C225.709 5.64 229.249 2.24 233.969 2.24C237.509 2.24 239.989 3.9 241.129 6.8C241.149 6.86 241.169 6.92 241.169 6.96C241.169 7.1 241.069 7.22 240.909 7.24L237.509 8.14C237.469 8.16 237.429 8.18 237.389 8.18C237.269 8.18 237.149 8.1 237.069 7.98C236.409 6.84 235.369 6.26 233.969 6.26C231.589 6.26 229.989 8 229.989 10.7C229.989 13.42 231.609 15.14 233.969 15.14C235.589 15.14 236.869 14.48 237.469 12.82C237.569 12.6 237.689 12.52 237.889 12.58L241.269 13.48C241.489 13.54 241.569 13.68 241.529 13.84C240.569 16.96 237.849 19.16 233.949 19.16ZM244.479 18.84C244.259 18.84 244.139 18.7 244.139 18.48V2.92C244.139 2.7 244.259 2.56 244.479 2.56H247.919C248.139 2.56 248.279 2.7 248.279 2.92V9.22L253.559 2.76C253.679 2.62 253.799 2.56 253.979 2.56H257.899C258.099 2.56 258.199 2.64 258.199 2.76C258.199 2.82 258.159 2.9 258.099 2.98L253.159 8.68L258.719 18.42C258.759 18.5 258.779 18.56 258.779 18.62C258.779 18.76 258.679 18.84 258.479 18.84H254.519C254.339 18.84 254.199 18.76 254.119 18.6L250.359 11.88L248.279 14.28V18.48C248.279 18.7 248.139 18.84 247.919 18.84H244.479ZM261.118 13.36C260.918 13.36 260.758 13.22 260.758 13L260.498 2.92C260.498 2.72 260.638 2.56 260.858 2.56H264.138C264.358 2.56 264.478 2.72 264.478 2.92L264.218 13C264.218 13.22 264.078 13.36 263.858 13.36H261.118ZM260.218 16.88C260.218 15.6 261.218 14.72 262.498 14.72C263.758 14.72 264.758 15.6 264.758 16.88C264.758 18.18 263.758 19.06 262.498 19.06C261.218 19.06 260.218 18.18 260.218 16.88Z" fill="white"/>
</svg>
